<svg width="15" height="15" viewBox="0 0 15 15" fill="none" xmlns="http://www.w3.org/2000/svg">
<path d="M3.93984 12.7871C2.71523 12.7871 2.1 12.1836 2.1 10.9766V3.81641C2.1 2.60938 2.71523 2 3.93984 2H11.0473C12.2777 2 12.8871 2.60938 12.8871 3.81641V10.9766C12.8871 12.1836 12.2777 12.7871 11.0473 12.7871H3.93984ZM3.04336 3.86914V6.92773H7.02187V2.94336H3.95156C3.36562 2.94336 3.04336 3.25977 3.04336 3.86914ZM11.0355 2.94336H7.96523V6.92773H11.9437V3.86914C11.9437 3.25977 11.6156 2.94336 11.0355 2.94336ZM3.95156 11.8438H7.02187V7.87109H3.04336V10.9238C3.04336 11.5332 3.36562 11.8438 3.95156 11.8438ZM11.9437 10.9238V7.87109H7.96523V11.8438H11.0355C11.6156 11.8438 11.9437 11.5332 11.9437 10.9238Z" fill="black"/>
<path d="M7 0H8V15H7V0Z" fill="black"/>
<path d="M15 6.9V7.9L0 7.9L4.37114e-08 6.9L15 6.9Z" fill="black"/>
</svg>
